<svg xmlns="http://www.w3.org/2000/svg" viewBox="0 0 981.97 898.88"><defs><style>.cls-1,.cls-14{fill:#0065ff;}.cls-1,.cls-4{opacity:0.1;isolation:isolate;}.cls-2{fill:#394143;}.cls-3{fill:#51504e;}.cls-5{fill:#606060;}.cls-6{fill:#cc322b;}.cls-7{fill:#fcd3ac;}.cls-8{fill:#d9d5d2;}.cls-9{fill:#2e3133;}.cls-10{fill:#ea4949;}.cls-11{fill:#c1bcb8;}.cls-12{fill:#b7b5b3;}.cls-13{fill:#2d7ff7;}.cls-15{fill:#edd443;}.cls-16{fill:#fff;}.cls-17{fill:#82b3d8;}.cls-18{fill:#605d4e;}</style></defs><title>ease_of_use</title><g id="Layer_2" data-name="Layer 2"><g id="Layer_1-2" data-name="Layer 1"><path class="cls-1" d="M745,645.08c31.11,2.61,63.62,5,92.43-7.08s52.12-43.37,44.07-73.57c-2.63-9.84-8.23-18.58-12.88-27.65-23.28-45.32-21.73-102.49,3.87-146.56,19.72-33.93,51.6-59,75.18-90.31s38.23-75.68,18.07-109.34c-13.8-23-40.86-35.23-67.4-39.11s-53.64-1-80.51-1.21a346.69,346.69,0,0,1-150.68-35.91c-91-45-99.33-85.91-187.43-106.42-27.21-6.34-48.2-7-69-7.69C329-2.42,266.56,18.23,220.18,34.06c-36.1,12.3-60.56,20.64-91.2,40-25.09,15.82-65.22,38.73-91.26,87.05C17.34,198.8,7.34,241.32,2.27,283.89c-3,25.34-4.17,51.6,3.81,75.83,9,27.24,28.71,49.53,49.59,69.19,21.82,20.55,45.77,39.35,73.34,51.18,32.94,14.13,69.26,17.64,104.81,22.3a1452.15,1452.15,0,0,1,215.64,45.13c67,19.4,140.66,40.62,200.85,76.55C680.53,642.1,710.12,642.18,745,645.08Z"/><path class="cls-2" d="M388.7,463.56l145.08,1.8c6.11.07,11,4.68,11,10.35V489.3c0,5.66-4.89,10.27-11,10.35l-119.33,1.67c-1.71.37-3.52.83-5.41,1.39-2.48.73-4.75,1.53-6.8,2.34-.75,3.06-1.5,6.11-2.24,9.17a11.35,11.35,0,0,1-9.59,5c-6,0-10.85-4.32-11.14-9.83l-1.88-35C377.09,468.46,382.26,463.46,388.7,463.56Z"/><path class="cls-3" d="M331.41,699.35c-.16,5.3-.34,13.37-.35,23.25,0,1.91,0,10.91.22,19.09.94,35.28,5.55,44-.65,51.15-3.07,3.56-6.45,4-19.35,6.44-60.69,11.4-42.08,12-73.14,16.39-13.44,1.93-21.92,2.54-28.52,9.63-5.61,6-9.63,16.53-6,21.22,1.73,2.2,5.42,3.47,7.69,2.37,1.92-.93,1.8-3.14,3.82-6.24a22.11,22.11,0,0,1,6.24-6.25l105.74-25.55-13.82,39.43c-.84,5.67,2.87,10.23,6.77,10.53,2.65.21,5.39-1.56,7-4.29,4.48-8,7.83-14.84,10.15-19.77,6.55-14,8.25-20.3,14-22,2.67-.79,3.54.22,12.75,1.87,7.13,1.28,10.58,1.39,16.66,2.09,12.11,1.38,31.69,4.77,50.21,8.89,12.22,2.71,27.06,6.44,43.82,11.58l17.17-14.4c-5.73-1.13-15-3-26.54-5-29.33-5.31-52.05-8.58-81.54-16.66-20.6-5.64-23.47-7.87-25.67-10.41-8.7-10-4-23.17-5.21-59-.47-14.16-.45-25.91-.35-34Z"/><path class="cls-4" d="M357,703.63c-.93,10.7-1.69,20.19-2.31,28.22-4.87,62.87-1.43,42.87-1.88,45.57-.4,2.36-1,5.83.49,9.62.78,1.89,3.22,6.61,18.88,12.41,6.07,2.25,10,3.14,26.45,7.11,13.63,3.29,12.13,3,15.27,3.7,25.46,6,63.89,13,68.82,13.84-.73,2.1-1.47,4.19-2.2,6.29-35.13-8.24-62.91-14-81.22-17.64-27.6-5.49-39.74-7.38-47.62-18.45-6.09-8.55-5.16-16.61-6.24-51.81-.57-18.26-1.33-33-1.86-42.1Z"/><path class="cls-5" d="M75.17,322.18c-3,8.53-.41,16.47,1.22,21.53,9.3,28.93,46.52,147.16,60.37,206.1,8,33.89,23,65.75,32.62,99.23,1.55,5.42,4.21,14.92,12.49,22.9,18.56,17.91,49.7,13.12,64.25,10.9,80.92-12.33,161.59-26.29,242.61-38,20.84-3,40.91-10.09,61.61-13.89,22.17-4.07,35.74-5.57,42-16.28,6.57-11.24,1-25.58-1.06-30.91-11.36-29.25-44.69-38.66-50.66-40.25-45.24-.53-80,.75-104.09,2.08-12.91.72-22.34,1.43-31.92-4.16-20.16-11.76-17.81-37.84-25.68-84.66-12.71-75.59-29.82-73-54.12-163.77-1.08-4-2.51-9.52-7.17-14.62-17-18.59-52.16-4.09-115,8.38C123.34,302.55,83.46,298.46,75.17,322.18Z"/><path class="cls-6" d="M178.74,318.73c-2.46,2.51-1.05,7,0,12.84.5,2.74,3.69,20.43,0,32.61-4.8,15.86-21,21.53-18.38,27.41.83,1.87,2.66,1.83,7.63,4.17a63.79,63.79,0,0,1,16.35,11.45c7.4,7.17,11.48,14.69,15.61,23.94,7.85,17.56,11,30.33,20.07,63,4.84,17.44,3.72,13,6.65,23.7,6.77,24.79,11.94,45.65,15.61,61.06L395.34,551.2c-15.13-68.56-24.2-119.74-27.15-138.74,0,0-3.8-25.6,5.76-40.31,3.1-4.77,4.93-5.29,6.67-7.41a16.38,16.38,0,0,0,1.79-2.94c2.37-5-10.49-25.55-17.19-41-5.79-13.36-5.6-19.72-11-21.45-6-1.92-12.13,4-18.59,8.53-9.31,6.49-24.45,13.51-49.3,14,4.32,1.89,8,4.27,8,6.94-.09,6.08-19.55,9.83-20.81,10.06a55.24,55.24,0,0,1-27.07-1.73c-2.51-.83-12.88-4.25-12.84-8.68,0-2.5,3.37-3.24,3.13-4.85-.54-3.55-18.79,1.5-40.94-3.47C187.57,318.28,181.7,315.73,178.74,318.73Z"/><path class="cls-7" d="M354.19,299.3a60.63,60.63,0,0,1,9.26-4.63c6.75-2.67,11.72-3.2,11.79-4.85.06-1.27-2.8-2.38-3.93-2.78-11-4-52.8-11.57-64.3-13.65l3-24.29c23.82-.12,55.19,1.43,87,8.33,12.44,2.71,26.05,6.47,36.54,18.28,1.31,1.47,9.74,11.16,11.11,21.74,2.68,20.86-21.84,47.24-62.23,59.79Q368.35,328.28,354.19,299.3Z"/><path class="cls-8" d="M227,533.28l11.57-.19A10.32,10.32,0,0,1,249,543.37a9.55,9.55,0,0,1-.27,2.38q-37.92,171.9-75.86,343.8a10.2,10.2,0,0,1-11.34,8h0a10.33,10.33,0,0,1-8.66-11.79c0-.15.05-.29.07-.44L217.18,541.7A10.24,10.24,0,0,1,227,533.28Z"/><path class="cls-2" d="M118.76,482.65l169.84-6c6.1.08,11,4.69,11,10.35v13.6c0,5.65-4.89,10.26-11,10.34l-119.26,1.68c-1.72.38-3.53.83-5.42,1.39-2.48.73-4.75,1.53-6.8,2.34-.75,3.06-1.49,6.12-2.24,9.17a15.42,15.42,0,0,1-9.59,5.06c-6.13.62-12.34-3-15.67-9.14q-5.4-19.4-10.81-38.79Z"/><path class="cls-9" d="M395.34,544.72c38.71.93,69.85,1.14,90.56,1.16,45.89,0,61.18-.77,76,9.94,10.56,7.64,14.13,16.5,28.68,65.46,16.25,54.69,24.37,82,34.35,124.91,6.49,27.87,11.41,51,14.69,66.85a50.74,50.74,0,0,1-17.12,13c-15.86,7.34-30.78,4.06-35.62,2.78-6.47-15.28-11-27.8-13.8-35.69C568.51,780,529,665.49,521.19,626.14c-.5-2.53-1.9-9.92-7.87-15-7.14-6-16.85-5.32-19.89-5.16-13.54.7-40.72-6.47-95.07-20.82a304.14,304.14,0,0,1-71.21-29.11Z"/><path class="cls-7" d="M178.74,318.73a62,62,0,0,1,4.52,22.2c.38,27.52-18.32,46.3-22.9,50.66a135.64,135.64,0,0,1-47.54-25.33c-7.5-6.25-12.5-11.9-19.78-20.12-11.82-13.36-17.7-20.19-18.7-27.41-2.24-16.58,13.85-31,17-33.66,11.55-9.87,22.67-10.75,55.33-15.88,12-1.89,31.06-5,55-9.44l26,29.49c-27.81-.92-48.83,3.39-63.15,7.7-1.41.42-23.2,7-22.55,10.69.31,1.76,5.71,1.7,14.22,3.47A98.13,98.13,0,0,1,178.74,318.73Z"/><path class="cls-4" d="M187.69,262.69a16.06,16.06,0,0,0-2.34,10c1.7,13.24,23.34,19.55,25.45,16.64C212,287.64,207.88,281.29,187.69,262.69Z"/><path class="cls-4" d="M323.43,250.38a49,49,0,0,0-8.56-.81c-6.64,0-11.82-.09-14.28,2.65-5.53,6.17,4.15,24.61,8.27,24,1.67-.27,1.61-3.57,4-9.6A51.8,51.8,0,0,1,323.43,250.38Z"/><path class="cls-7" d="M221.42,288.2c1.82,1.86,4.6,4.62,8.15,7.8,7.06,6.32,8.1,6.18,9.16,8.68,1.42,3.35.4,8.12-1.63,17.67a4.6,4.6,0,0,1-.67,1.76c-.66,1-1.35,1.06-2.06,2.07a5,5,0,0,0-.72,1.65,7.75,7.75,0,0,0,.26,4.08c.73,2.12,8.36,8.11,25.1,8.22,18,.11,35.5-6.68,35.27-11.34-.07-1.58-2.23-3.61-2.52-3.89-2.08-2-3.86-1.91-5.46-3s-3.18-3.55-3.12-9.37a69.22,69.22,0,0,0,20.16-20.81c11.32-18.31,10.37-36.82,9.7-50a123,123,0,0,0-16.12-54.34c-9.64-2.19-39.73-7.69-67.13,9.28-32,19.82-51.43,64.77-37.47,82.58C195.34,283.06,202.55,289,221.42,288.2Z"/><path class="cls-5" d="M222.12,267.38c1.83-.31,3-8.37.69-39.21-1.45-12.46-1.63-27,5.35-30.56s16.11,6.79,35.24,15.47c16.41,7.44,48.69,17.38,57.94,6.38,8.58-10.18-3-38-20.82-52.74-20-16.58-44.79-14.07-56.25-12.9-11.83,1.2-26.82,5.53-30,11.16a10.09,10.09,0,0,1-4.51,4.51c-2.47,1.13-4.73.65-6.42.52-4.21-.3-7.33,1.46-13.36,4.86-2,1.11-20.67,11.67-23.25,30.36-.71,5.17,1.78,12.65,6.77,27.41,2.46,7.26,10.42,30.82,14.15,30,2.11-.46,0-8.16,5.28-13.18a14.13,14.13,0,0,1,12-3.47C216.22,248.4,219.18,267.87,222.12,267.38Z"/><path class="cls-3" d="M320,667.46a109.36,109.36,0,0,0-.69,17.35c.41,10.56.62,15.85,3.38,19.2,7.61,9.22,31.45,7.26,40.68-5,3.71-4.91,4.28-10.46,5.2-19.43a80.8,80.8,0,0,0-1-23.59Z"/><path class="cls-10" d="M476.79,832.93a90.87,90.87,0,0,0-2.78,9,92.81,92.81,0,0,0-2.43,29.84c66.81,6.85,136.58,11.83,138.44,2.08.48-2.51-3.72-5.18-12.14-10.41-21.37-13.24-45.44-27.72-72.06-43a116.27,116.27,0,0,0-49,12.49Z"/><path class="cls-11" d="M806.16,533.46l7.44-.36a10.3,10.3,0,0,1,10.57,12.46L749.86,890.72a10.29,10.29,0,0,1-10.07,8.13h0a10.29,10.29,0,0,1-10.3-10.29,10,10,0,0,1,.18-2l66.87-344.8A10.32,10.32,0,0,1,806.16,533.46Z"/><path class="cls-11" d="M885.42,544q38.18,172.08,76.36,344.15a10.25,10.25,0,0,0,8,7.84h0a10.24,10.24,0,0,0,12-12L914.17,538.76a10.23,10.23,0,0,0-11.25-8.19l-8.7,1a10.24,10.24,0,0,0-9,11.38C885.29,543.3,885.35,543.64,885.42,544Z"/><path class="cls-10" d="M585,821.64c-.09,2.48-.19,5-.31,7.49q-.68,14-2.08,27.32c66.86,7.21,135.3,12.16,138.44,1.73.52-1.72-.68-4-13.53-13A332.37,332.37,0,0,0,638.79,809a67.55,67.55,0,0,1-22.87,10.92A76.61,76.61,0,0,1,585,821.64Z"/><path class="cls-12" d="M468.63,525.81l-.14,2c-.55,7.46,6.33,13.76,15,13.72l475.32-2c9.24,0,16.23-7.26,14.63-15.13h0c-1.25-6.17-7.45-10.68-14.7-10.68H483.53C475.66,513.72,469.13,519,468.63,525.81Z"/><rect class="cls-8" x="137.92" y="513.72" width="353.67" height="27.76" rx="10"/><path class="cls-9" d="M241.1,574.2c7,27.41,19.31,40.46,29.36,47.31,42.57,29,106.2-11.47,134.16,19.9,1.6,1.79,2.06,2.67,9.44,20.68,25.23,61.57,38.09,93.1,49.89,129.2,3.34,10.22,7.85,24.45,12.84,41.64a92.61,92.61,0,0,0,49-12.49c-1.41-7.12-3.61-18.13-6.36-31.57-1.35-6.66-12.55-61.09-35.73-153-6.16-24.4-7.16-27.69-10.64-32.84-16.87-25-50.18-32.07-95.79-41.2-18.57-3.72-34.16-5.7-44.93-6.82Z"/><path class="cls-8" d="M309.19,541.9Q348.19,717,387.14,892A8.62,8.62,0,1,0,404,888.46L336.66,537.72a8.63,8.63,0,0,0-8.93-7.06l-10.61.59a8.73,8.73,0,0,0-8.13,9.27A9,9,0,0,0,309.19,541.9Z"/><circle class="cls-5" cx="206.41" cy="862.53" r="19.43"/><circle class="cls-5" cx="317.19" cy="871.27" r="19.43"/><path class="cls-13" d="M406.21,501.41h154.2v12.32H397.34v-3.44a8.87,8.87,0,0,1,8.86-8.88Z"/><path class="cls-13" d="M593.6,361.29c-4.06,11.26-27.53,132.47-28.37,135.23a13.12,13.12,0,0,1-.66,1.71,6.73,6.73,0,0,1-1.74,2.66,5.34,5.34,0,0,1-2.42,1c-1.47.33-2,0-2.43.23-.81.46-.78,3,2.43,11.56h9.36l32.16-159.6a8.27,8.27,0,0,0-3.24.69C595.34,356.29,594.07,360,593.6,361.29Z"/><path class="cls-14" d="M800.4,513.72H569.77l32.16-159.6,228.55-.66a7,7,0,0,1,6.95,7.05,6.21,6.21,0,0,1-.13,1.29Q822.24,435,807.2,508.19A7,7,0,0,1,800.4,513.72Z"/><path class="cls-15" d="M317,433.91l49.76-.31a2,2,0,0,1,2,2,1.27,1.27,0,0,1,0,.2l-7,76.11a2,2,0,0,1-2,1.82H326a2,2,0,0,1-2-1.76l-9-75.81a2,2,0,0,1,1.75-2.22Z"/><path class="cls-2" d="M323,377.28a48.06,48.06,0,0,1,11,6.94c4.6,3.87,5.75,6.35,6.25,7.89a13.3,13.3,0,0,1,.61,4.77c-.19,5.46-.23,18.73-.27,36.88h5.12c.64-17.49,1-30.26,1.07-33.95a49,49,0,0,0-.36-7.65s-.3-2.33-.71-4.12c-1.56-6.83-18.46-15.06-19.26-15.44Z"/><path class="cls-16" d="M735.92,434.79c1.65,8.92-9.91,19-21.16,20.36-10.47,1.27-23.58-4.63-24.63-13.42s10.71-17.63,21.23-19C721.34,421.46,734.34,426.32,735.92,434.79Z"/><path class="cls-17" d="M321.74,454.14l39.6-10.29a5.24,5.24,0,0,1,6.33,5.79h0a5.37,5.37,0,0,1-3.56,4.65l-39.26,13.17a5.14,5.14,0,0,1-6.43-3.41,4.92,4.92,0,0,1-.21-1.08l-.34-2.87A5.43,5.43,0,0,1,321.74,454.14Z"/><polygon class="cls-18" points="321.59 491.42 364.94 477.34 363.25 495.79 323.51 507.57 321.59 491.42"/></g></g></svg>